<svg width="24" height="24" viewBox="0 0 24 24" fill="none" xmlns="http://www.w3.org/2000/svg">
<path d="M9.72746 4.79016C9.70418 4.79016 9.68186 4.794 9.65954 4.79712V4.79016H7.17866C7.04098 4.79016 6.90894 4.84485 6.81159 4.94221C6.71423 5.03956 6.65954 5.1716 6.65954 5.30928V5.31048L6.6593 18.6888V18.691C6.6593 18.9775 6.89186 19.2098 7.17842 19.2098H9.72722C9.86484 19.2098 9.99682 19.1552 10.0941 19.0579C10.1914 18.9606 10.2461 18.8286 10.2461 18.691L10.2459 18.6888L10.2461 5.31048L10.2463 5.30928C10.2463 5.17164 10.1917 5.03964 10.0944 4.94229C9.99708 4.84495 9.8651 4.79022 9.72746 4.79016ZM17.3403 18.6888V5.31048L17.3405 5.30928C17.3405 5.17164 17.2858 5.03964 17.1885 4.94229C17.0912 4.84495 16.9593 4.79022 16.8216 4.79016C16.7983 4.79016 16.776 4.794 16.7537 4.79712V4.79016H14.2728C14.1351 4.79016 14.0031 4.84485 13.9057 4.94221C13.8084 5.03956 13.7537 5.1716 13.7537 5.30928V5.31048L13.7535 18.6888V18.691C13.7535 18.9775 13.986 19.2098 14.2726 19.2098H16.8209C16.9585 19.2098 17.0905 19.1552 17.1878 19.0579C17.2851 18.9606 17.3398 18.8286 17.3398 18.691C17.3403 18.6902 17.34 18.6895 17.3403 18.6888Z" fill="white"/>
</svg>
