<svg width="40" height="31" viewBox="0 0 40 31" fill="none" xmlns="http://www.w3.org/2000/svg">
<path d="M20 11.8217C31.0457 11.8217 40 9.17531 40 5.91084C40 2.64638 31.0457 0 20 0C8.95431 0 0 2.64638 0 5.91084C0 9.17531 8.95431 11.8217 20 11.8217Z" fill="white"/>
<path d="M20 19.1796C31.0457 19.1796 40 17.5325 40 15.5007C40 13.4688 31.0457 11.8217 20 11.8217C8.95431 11.8217 0 13.4688 0 15.5007C0 17.5325 8.95431 19.1796 20 19.1796Z" fill="white"/>
<path d="M20 31C31.0457 31 40 28.3536 40 25.0892C40 21.8247 31.0457 19.1783 20 19.1783C8.95431 19.1783 0 21.8247 0 25.0892C0 28.3536 8.95431 31 20 31Z" fill="white"/>
</svg>
